<svg width="128" height="128" viewBox="0 0 128 128" fill="none" xmlns="http://www.w3.org/2000/svg">
<circle cx="64" cy="64" r="64" fill="#FFCA28"/>
<path d="M14.1023 58.64C14.1023 56.72 14.6783 55.1627 15.8303 53.968C17.0036 52.752 18.5076 52.144 20.3423 52.144C22.5396 52.144 24.2249 53.1467 25.3983 55.152C26.1023 54.064 26.8703 53.296 27.7023 52.848C28.5343 52.3787 29.5476 52.144 30.7423 52.144C32.6623 52.144 34.1343 52.752 35.1583 53.968C36.1823 55.1627 36.6943 56.9013 36.6943 59.184V74H30.3583V63.824L31.3503 62.8L30.3583 61.84V60.112C30.3583 59.4293 30.2943 58.9813 30.1663 58.768C30.0596 58.5333 29.8463 58.416 29.5263 58.416C28.8863 58.416 28.5662 58.9493 28.5662 60.016L25.3983 56.848L22.2303 60.016C22.2089 59.4187 22.1449 59.0027 22.0383 58.768C21.9316 58.5333 21.7183 58.416 21.3983 58.416C20.7583 58.416 20.4383 58.9813 20.4383 60.112V61.776L19.4143 62.8L20.4383 63.824V74H14.1023V58.64ZM28.5662 65.616V74H22.2303V65.648L25.3983 68.784L28.5662 65.616ZM25.0463 60.816L27.0303 62.8L25.3983 64.464L23.3823 62.512L22.2303 63.664V60.016L20.4383 61.776L22.2303 60.016L25.3983 56.848L28.5662 60.016V61.328L27.3823 62.512L25.3983 60.496L25.0463 60.816ZM22.2303 65.648V64.304L23.3823 63.152L25.3983 65.136L28.5662 61.968V65.616L25.3983 68.784L22.2303 65.648ZM25.3983 60.496L27.3823 62.512L28.5662 61.328V61.968L25.3983 65.136L23.3823 63.152L22.2303 64.304V63.664L23.3823 62.512L25.3983 64.464L27.0303 62.8L25.0463 60.816L25.3983 60.496ZM19.4143 62.8L20.4383 61.776V63.824L19.4143 62.8ZM30.3583 61.84L31.3503 62.8L30.3583 63.792V61.84L29.5263 61.008L30.3583 61.84ZM28.5662 65.616L29.8783 64.272L28.5662 65.616ZM21.2383 64.624L22.2303 63.664L21.2383 64.624ZM29.2063 60.656L28.5662 61.328L29.2063 60.656ZM30.3583 63.824L29.8783 64.272L30.3583 63.792V63.824ZM46.087 60.496L48.071 62.512L49.575 60.976H51.879V62.64L50.215 61.008L46.087 65.136L44.071 63.152L42.247 64.976L46.087 68.784L47.015 67.856C47.271 67.8987 47.6123 67.92 48.039 67.92H52.295V74H47.303C44.9563 74 43.1643 73.4453 41.927 72.336C40.6897 71.2053 40.071 69.584 40.071 67.472V59.12C40.071 57.072 40.6577 55.4827 41.831 54.352C43.0043 53.2213 44.6577 52.656 46.791 52.656H52.295V58.8H48.039L46.087 56.848L40.103 62.8L41.927 64.624L44.071 62.512L46.087 64.464L47.719 62.8L45.735 60.816L46.087 60.496ZM46.599 59.856C46.599 60.2827 46.727 60.5813 46.983 60.752C47.2603 60.9013 47.7297 60.976 48.391 60.976H49.575L48.071 62.512L46.087 60.496L45.735 60.816L47.719 62.8L46.087 64.464L44.071 62.512L41.927 64.624L40.103 62.8L46.087 56.848L48.039 58.8C47.079 58.864 46.599 59.216 46.599 59.856ZM46.567 65.968C46.3323 66.1387 46.215 66.416 46.215 66.8C46.215 67.248 46.3323 67.5467 46.567 67.696C46.6737 67.76 46.823 67.8133 47.015 67.856L46.087 68.784L42.247 64.976L44.071 63.152L46.087 65.136L50.215 61.008L51.879 62.64V62.96L49.127 65.712L47.015 67.856L49.127 65.712H47.751C47.1963 65.712 46.8017 65.7973 46.567 65.968ZM49.127 65.712L51.879 62.96V65.712H49.127ZM55.5085 74V60.144C55.5085 57.7333 56.2338 55.8027 57.6845 54.352C59.1352 52.88 61.0765 52.144 63.5085 52.144C65.9192 52.144 67.7538 52.8587 69.0125 54.288C70.2925 55.696 70.9325 57.7227 70.9325 60.368V74H64.5965V60.368C64.5965 59.0667 64.1272 58.416 63.1885 58.416C62.2925 58.416 61.8445 59.0667 61.8445 60.368V74H55.5085ZM74.3523 74V60.144C74.3523 57.7333 75.0776 55.8027 76.5283 54.352C77.9789 52.88 79.9203 52.144 82.3523 52.144C84.7629 52.144 86.5976 52.8587 87.8563 54.288C89.1363 55.696 89.7763 57.7227 89.7763 60.368V74H83.4403V60.368C83.4403 59.0667 82.9709 58.416 82.0323 58.416C81.1363 58.416 80.6883 59.0667 80.6883 60.368V74H74.3523ZM103.756 52.144C106.764 52.144 109.345 53.2427 111.5 55.44C113.676 57.6373 114.764 60.272 114.764 63.344C114.764 66.4587 113.676 69.104 111.5 71.28C109.324 73.456 106.679 74.544 103.564 74.544C100.471 74.544 97.8253 73.456 95.628 71.28C93.452 69.0827 92.364 66.4373 92.364 63.344C92.364 60.208 93.4627 57.5627 95.66 55.408C97.8573 53.232 100.556 52.144 103.756 52.144ZM103.564 58.416C102.263 58.416 101.153 58.896 100.236 59.856C99.3187 60.816 98.86 61.9787 98.86 63.344C98.86 64.688 99.3187 65.84 100.236 66.8C101.153 67.76 102.263 68.24 103.564 68.24C104.865 68.24 105.975 67.76 106.892 66.8C107.809 65.84 108.268 64.688 108.268 63.344C108.268 61.9787 107.809 60.816 106.892 59.856C105.975 58.896 104.865 58.416 103.564 58.416Z" fill="black"/>
<line x1="16" y1="46.5" x2="112" y2="46.5" stroke="black"/>
<line x1="16" y1="80.5" x2="112" y2="80.5" stroke="black"/>
</svg>
