<?xml version="1.0" encoding="utf-8"?>
<!-- Generator: Adobe Illustrator 24.3.0, SVG Export Plug-In . SVG Version: 6.00 Build 0)  -->
<svg version="1.1" id="Layer_2_1_" xmlns="http://www.w3.org/2000/svg" xmlns:xlink="http://www.w3.org/1999/xlink" x="0px" y="0px"
	 viewBox="0 0 40 40" style="enable-background:new 0 0 40 40;" xml:space="preserve">
<style type="text/css">
	.st0{fill:#FFEE58;}
</style>
<g id="Layer_1">
	<path class="st0" d="M23,2.6c0.3-0.8,1.1-1.3,1.9-1.2c0.8,0.2,1.4,0.9,1.4,1.8c0,0.2-0.1,0.3-0.2,0.4c-0.2,0.1-0.3,0.2-0.5,0.2
		c-0.3,0-0.6,0-0.9,0C23.9,3.8,22.8,3.5,23,2.6z M39,17.4c-0.3-0.4-0.6-0.8-0.9-1.2c-0.2-0.5-0.3-1-0.5-1.4
		c-0.2-0.5-0.6-0.8-1.1-0.9c-1.4,0.1-1.3,2.4-0.6,3.1c0.5,0.5,1.3,0.7,1.7,1.3c0.3,0.4,0.4,1,0.9,1.2c0.5,0.1,0.9-0.2,1-0.7
		c0,0,0-0.1,0-0.1C39.6,18.2,39.4,17.7,39,17.4z M37,20.6c0,0.4-0.1,0.7-0.3,1.1c-0.5,1.1-1.8,1.9-2.1,3.1c-0.2,0.8,0.2,1.5,0.2,2.3
		c0,0.8-0.3,1.6-0.8,2.3c-0.9,1.6-2.4,1.4-3.6,2.5c-1,1-1.1,3.4-2.4,4.2c-1,0.6-2.5,0-3.6,0.2c-1.9,0.2-3,1.5-4.6,2.1
		c-1.6,0.6-2.3-0.8-3.5-1.5c-2.4-1.4-5.8,1-7.2-2.1c-0.6-1.4-1.6-2.7-2.8-3.6c-1-0.7-3.1-1.3-2.9-2.8c0.1-0.4,0.2-0.7,0.3-1.1
		c0.9-3.1-3.8-5.5-1.8-8.5c0.4-0.5,0.9-1,1.4-1.4c1.3-1.3,0-3,0.1-4.5c0-1.7,1.3-2.5,2.8-2.8c2.7-0.6,2.1-3.6,4-4.9
		c1.6-1,3,0.2,4.6-0.3c1.6-0.4,2.9-1.6,4.7-1.7c1.2-0.1,2.1,0.7,3.1,1.2c1.4,0.7,2.3,0.2,3.7,0.3c1.1,0.1,2,0.6,2.7,1.4
		c0.6,0.9,0.6,2.1,1.4,2.9c1.1,1.1,2.9,1.5,3.7,2.9c1.1,2-0.5,4.5,1.3,6.3C36.3,19.2,37,19.7,37,20.6z M33.5,26.7
		c-0.1-0.3-0.4-0.5-0.7-0.6c-0.7,0-0.4,0.5-0.4,0.9c0.1,0.4-0.1,0.9-0.3,1.3c-0.4,0.4-0.6,0.9-0.8,1.5c0,0,0,0.1,0,0.1
		c0,0,0.1,0.1,0.1,0.1c0.4,0.2,0.9-0.2,1.2-0.6c0.4-0.5,0.7-1.2,0.8-1.8C33.6,27.3,33.6,27,33.5,26.7z M2,17.1c0.1,0,0.3,0,0.4-0.1
		c1-0.6,0.6-1.8,0.2-2.6c-0.2-0.5-1.3-1.8-1.8-0.7c-0.2,0.5,0.2,1,0.4,1.5c0,0.4,0.1,0.8,0.1,1.1C1.4,16.7,1.6,17.1,2,17.1z
		 M33,31.7c-1.4-0.3-2,0.9-2.5,1.9c-0.2,0.4-0.4,0.9-0.5,1.3c-0.1,0.5-0.1,1,0.1,1.4c0.1,0.2,0.2,0.3,0.3,0.4c0.4,0.3,1,0.2,1.2-0.3
		c0.2-0.3,0.4-0.7,0.5-1c0.1-0.4,0.3-0.7,0.5-1c0.2-0.2,0.5-0.4,0.7-0.6c0.5-0.4,0.6-1,0.4-1.5C33.7,32,33.3,31.7,33,31.7z"/>
	<path d="M6.2,15.3c1-0.1,1.9,0,2.9-0.1l2.9,0c6.7-0.1,13.3-0.1,20-0.3c0.4,0,0.4,0.4,0,0.4c-1.9,0-3.8,0.1-5.7,0.1
		c-3.3,0-6.7,0.1-10,0.1c-1.7,0-3.3,0-5,0c-1.7,0-3.3,0.1-5,0C6,15.4,6,15.3,6.2,15.3z M33,24.4C26,24.1,19,24,12.1,24.2
		c-1.9,0-3.9,0-5.9,0.2c-0.2,0-0.2,0.2,0,0.2v0c1.7,0,3.5,0,5.2-0.1s3.5,0,5.2,0c3.5,0,7,0,10.4,0.1c2,0,3.9,0.1,5.9,0.2
		C33.3,24.9,33.3,24.4,33,24.4z M11.6,8.1c0.4,0.3,0.8,0.5,1.2,0.8c0.4,0.3,0.6,0.7,1,1c0.2,0.2,0.5,0,0.4-0.2
		c-0.3-0.4-0.7-0.7-1.1-1c-0.4-0.3-0.9-0.6-1.3-0.8C11.6,7.8,11.4,8,11.6,8.1L11.6,8.1z M19.5,9.4c0-0.4,0-0.7,0-1.1
		c0-0.3,0-0.7-0.1-1c0-0.1-0.2-0.1-0.2,0c-0.1,0.3-0.1,0.7-0.1,1c0,0.4,0,0.7,0,1.1C19.1,9.6,19.5,9.6,19.5,9.4z M23.9,9.7L23.9,9.7
		c1.2-0.7,2.5-1.3,3.7-2c0.2-0.1-0.1-0.3-0.3-0.2c-1.3,0.6-2.4,1.4-3.6,2.1C23.5,9.6,23.7,9.8,23.9,9.7z M18.8,30.5
		c0-0.1-0.2-0.1-0.3,0v0c-0.1,0.4-0.2,0.8-0.2,1.2c0,0.4,0,0.8,0.2,1.2c0.1,0.2,0.4,0.1,0.4,0c0-0.4-0.2-0.8-0.2-1.2
		C18.7,31.3,18.8,30.9,18.8,30.5z M24.8,30.8c-0.4-0.2-0.9-0.4-1.3-0.6c-0.2-0.1-0.3,0.1-0.2,0.2c0.4,0.2,0.8,0.4,1.2,0.6
		c0.4,0.2,0.8,0.4,1.3,0.6c0.2,0.1,0.4-0.1,0.2-0.2C25.7,31.2,25.2,31,24.8,30.8z M14.1,30L14.1,30c-0.7,0.7-1.5,1.3-2.3,2
		c-0.1,0.1,0.1,0.3,0.2,0.2c0.8-0.6,1.5-1.3,2.2-2C14.3,30,14.2,29.9,14.1,30z M13.4,22.3v-3.2c0-0.3,0-0.6-0.1-0.9
		c0-0.2-0.1-0.4-0.3-0.5c-0.1-0.2-0.3-0.3-0.5-0.4c-0.2-0.1-0.4-0.1-0.6-0.1c-0.3,0-0.5,0.1-0.7,0.2c-0.2,0.1-0.4,0.3-0.5,0.5
		c-0.1-0.2-0.3-0.4-0.5-0.5c-0.2-0.1-0.5-0.2-0.7-0.2c-0.2,0-0.5,0.1-0.7,0.2c-0.2,0.1-0.4,0.3-0.5,0.5c-0.1,0.1-0.1,0.3-0.2,0.5
		c0,0.3-0.1,0.5-0.1,0.8v3.2h1.4v-3.2c0-0.1,0-0.2,0.1-0.4c0.1-0.1,0.1-0.1,0.2-0.1c0.1,0,0.2,0,0.2,0.1C10,18.9,10,19,10,19.1v3.2
		h1.4v-3.2c0-0.1,0-0.2,0.1-0.4c0.1-0.1,0.1-0.1,0.2-0.1c0.1,0,0.2,0,0.2,0.1c0.1,0.1,0.1,0.2,0.1,0.4v3.2H13.4z M15.8,18.8h1v-1.5
		h-1c-0.3,0-0.5,0-0.8,0.1c-0.2,0-0.4,0.1-0.5,0.3c-0.2,0.1-0.3,0.3-0.4,0.5C14,18.5,14,18.8,14,19.1V21c0,0.2,0.1,0.5,0.2,0.6
		c0.1,0.2,0.3,0.4,0.5,0.5c0.1,0.1,0.3,0.1,0.4,0.2c0.2,0,0.4,0.1,0.6,0h1v-1.5h-1.1c-0.1,0-0.2,0-0.2-0.1c0-0.1-0.1-0.1-0.1-0.2
		c0-0.1,0-0.1,0.1-0.2c0.1,0,0.1-0.1,0.2-0.1h1v-1.1h-0.9c-0.1,0-0.2,0-0.2-0.1c0-0.1-0.1-0.1-0.1-0.2c0-0.1,0-0.1,0.1-0.2
		C15.7,18.8,15.7,18.8,15.8,18.8z M30,18c0.2,0.2,0.4,0.5,0.6,0.8c0.1,0.3,0.2,0.6,0.2,1c0,0.3-0.1,0.6-0.1,0.9
		c-0.1,0.3-0.2,0.5-0.4,0.8c-0.2,0.3-0.5,0.5-0.9,0.7c-0.4,0.2-0.7,0.2-1.1,0.2c-0.3,0-0.6-0.1-0.9-0.1c-0.3-0.1-0.5-0.2-0.8-0.4
		c-0.3-0.2-0.5-0.6-0.7-0.9c-0.2-0.3-0.3-0.7-0.3-1.1h0c0-0.3,0.1-0.7,0.2-1c0.1-0.3,0.3-0.6,0.6-0.8c0.2-0.2,0.5-0.4,0.8-0.6
		c0.3-0.1,0.6-0.2,1-0.2c0.3,0,0.7,0.1,1,0.2C29.5,17.6,29.7,17.8,30,18z M29.3,19.8c0-0.3-0.1-0.6-0.3-0.8
		c-0.2-0.2-0.5-0.3-0.8-0.3c-0.3,0-0.6,0.1-0.8,0.3c-0.2,0.2-0.3,0.5-0.3,0.8h0c0,0.3,0.1,0.6,0.3,0.8c0.2,0.2,0.5,0.3,0.8,0.3
		c0.3,0,0.6-0.1,0.8-0.3C29.2,20.4,29.3,20.1,29.3,19.8z M25.1,22.3v-2.7c0-0.3,0-0.7-0.1-1c-0.1-0.2-0.1-0.4-0.3-0.6
		c-0.2-0.2-0.4-0.4-0.6-0.6c-0.2-0.1-0.5-0.2-0.8-0.2c-0.3,0-0.7,0.1-0.9,0.3c-0.3,0.2-0.5,0.5-0.6,0.8c-0.1,0.2-0.1,0.4-0.2,0.5
		c0,0.2-0.1,0.5-0.1,0.7v2.8H23v-3c0-0.1,0-0.3,0.1-0.4c0-0.1,0.1-0.1,0.2-0.1c0.1,0,0.2,0,0.2,0.1c0.1,0.1,0.1,0.3,0.1,0.4v3H25.1z
		 M20.9,22.3v-2.7c0-0.3,0-0.7-0.1-1c-0.1-0.2-0.1-0.4-0.3-0.6c-0.2-0.2-0.4-0.4-0.6-0.6c-0.2-0.1-0.5-0.2-0.8-0.2
		c-0.3,0-0.7,0.1-0.9,0.3c-0.3,0.2-0.5,0.4-0.6,0.8c-0.1,0.2-0.1,0.4-0.2,0.5c0,0.2-0.1,0.5,0,0.7v2.8h1.5v-3c0-0.1,0-0.3,0.1-0.4
		c0-0.1,0.1-0.1,0.2-0.1c0.1,0,0.2,0,0.2,0.1c0.1,0.1,0.1,0.3,0.1,0.4v3H20.9z"/>
</g>
</svg>
