<?xml version="1.0" encoding="utf-8"?>
<!-- Generator: Adobe Illustrator 23.0.6, SVG Export Plug-In . SVG Version: 6.00 Build 0)  -->
<svg version="1.1" id="Layer_1" xmlns="http://www.w3.org/2000/svg" xmlns:xlink="http://www.w3.org/1999/xlink" x="0px" y="0px"
	 viewBox="0 0 34 29" style="enable-background:new 0 0 34 29;" xml:space="preserve">
<style type="text/css">
	.st0{fill-rule:evenodd;clip-rule:evenodd;fill:#00BFFF;}
	.st1{filter:url(#Adobe_OpacityMaskFilter);}
	.st2{fill-rule:evenodd;clip-rule:evenodd;fill:#FFFFFF;}
	.st3{mask:url(#mask-2_2_);fill-rule:evenodd;clip-rule:evenodd;fill:#FFFFFF;}
</style>
<path id="Fill-3" class="st0" d="M27.53,20.66C25.22,25.59,20.23,29,14.45,29C6.47,29,0,22.5,0,14.5S6.47,0,14.45,0
	c4.07,0,7.76,1.7,10.38,4.42h8.38c0.28,0,0.53,0.15,0.68,0.38c0.14,0.24,0.15,0.53,0.02,0.78c-0.7,1.33-1.87,3.56-2.86,5.44
	c-0.52,0.99-1.28,1.8-2.19,2.38c0.03,0.36,0.04,0.73,0.04,1.11c0,1.39-0.2,2.74-0.56,4.02h1.14c0.59,0,1.07,0.48,1.07,1.07
	c0,0.59-0.48,1.07-1.07,1.07H27.53z"/>
<defs>
	<filter id="Adobe_OpacityMaskFilter" filterUnits="userSpaceOnUse" x="0.38" y="5.92" width="30.88" height="20.97">
		<feColorMatrix  type="matrix" values="1 0 0 0 0  0 1 0 0 0  0 0 1 0 0  0 0 0 1 0"/>
	</filter>
</defs>
<mask maskUnits="userSpaceOnUse" x="0.38" y="5.92" width="30.88" height="20.97" id="mask-2_2_">
	<g class="st1">
		<path id="path-1_2_" class="st2" d="M32.14,14.49c0-4.74,4.54-8.95,1.07-11.58c-2.35-1.78-15.54-2.83-18.69-2.83
			c-7.81,0-14.14,6.45-14.14,14.4s6.34,14.4,14.14,14.4c5.36,0,14.13-3.05,16.53-7.54C32.14,19.32,32.14,16.98,32.14,14.49z"/>
	</g>
</mask>
<path id="Fill-4" class="st3" d="M9.53,26.89H8.37c-0.21,0-0.38-0.17-0.38-0.39V26.5c0-0.21,0.17-0.39,0.38-0.39h1.16
	c0.21,0,0.38,0.17,0.38,0.39v0.01C9.91,26.72,9.74,26.89,9.53,26.89z M20.58,25.87h-9.13c-0.21,0-0.38-0.17-0.38-0.39v-0.01
	c0-0.21,0.17-0.39,0.38-0.39h9.13c0.21,0,0.38,0.17,0.38,0.39v0.01C20.97,25.7,20.79,25.87,20.58,25.87z M0.38,5.92
	c0,0,24.51,0,30.17,0c0.25,0,0.48,0.13,0.61,0.34c0.13,0.21,0.14,0.48,0.03,0.71c-0.51,1.02-1.2,2.43-1.2,2.43
	c-1.07,2.17-3.26,3.54-5.64,3.54h-0.36l-0.94,1.9c-1.07,2.17-3.25,3.54-5.64,3.54h-0.36l-0.94,1.9H22c0.21,0,0.38,0.17,0.38,0.39
	v0.01c0,0.21-0.17,0.39-0.38,0.39h-6.35c-1.17,1.72-3.1,2.76-5.19,2.76h-7.1v0l-2.98,0v-1.57h3.01v0h7.08c1.8,0,3.45-1.04,4.26-2.68
	l0.59-1.2H8.08c-0.42,0-0.76-0.35-0.76-0.78v-0.02c0-0.43,0.34-0.78,0.76-0.78h9.32c1.8,0,3.45-1.04,4.26-2.68l0.59-1.2H10.78
	c-0.42,0-0.76-0.35-0.76-0.78v-0.02c0-0.43,0.34-0.78,0.76-0.78h13.56c1.8,0,3.45-1.04,4.26-2.68l0.59-1.2l-28.82,0V5.92z
	 M19.17,22.66h-2.71c-0.21,0-0.38-0.17-0.38-0.39v-0.01c0-0.21,0.17-0.39,0.38-0.39h2.71c0.21,0,0.38,0.17,0.38,0.39v0.01
	C19.55,22.48,19.38,22.66,19.17,22.66z M29.07,19.93h-9.13c-0.21,0-0.38-0.17-0.38-0.39v-0.01c0-0.22,0.17-0.39,0.38-0.39h9.13
	c0.21,0,0.38,0.17,0.38,0.39v0.01C29.45,19.75,29.28,19.93,29.07,19.93z"/>
</svg>
